Coordinates
version=1
nRows=18
nColumns=28
inDegrees=yes

Units are S.I. units (second, meters, Newtons, ...)
Angles are in degrees.

endheader
time	pelvis_tilt	pelvis_list	pelvis_rotation	pelvis_tx	pelvis_ty	pelvis_tz	hip_flexion_r	hip_adduction_r	hip_rotation_r	knee_angle_r	ankle_angle_r	subtalar_angle_r	mtp_angle_r	hip_flexion_l	hip_adduction_l	hip_rotation_l	knee_angle_l	socket_flexion	socket_adduction	socket_rotation	socket_tx	socket_ty	socket_tz	foot_flex	lumbar_extension	lumbar_bending	lumbar_rotation
      0.95000000	      4.34378451	     -3.16875216	     -2.30735615	      0.43205206	      1.03614775	      0.31291944	     -0.68924297	      8.38698209	     -0.69608945	    -14.84965749	      5.42583328	    -15.21838167	      8.62231756	     13.13444543	     -8.25818324	     -2.51844757	    -70.33877287	    -10.04931159	     -1.36523491	     14.36076212	      0.00000000	      0.03437160	      0.00000000	     -0.32473111	    -12.34344221	      2.06806103	      5.60699194
      0.95416667	      4.28164081	     -3.01897467	     -2.55393384	      0.43672002	      1.03687573	      0.31335366	     -1.08700673	      8.17908299	     -0.64949935	    -14.51789333	      5.35982295	    -14.87169339	      8.75296806	     13.71844271	     -8.08001215	     -2.54187292	    -69.90023998	    -10.07814958	     -1.36685262	     14.37522697	      0.00000000	      0.03446909	      0.00000000	     -0.31135342	    -12.30337613	      1.86513896	      5.81829020
      0.95833333	      4.29130543	     -3.00729223	     -2.80821257	      0.44097169	      1.03749277	      0.31376676	     -1.40114753	      8.11289937	     -0.71839491	    -14.47983665	      5.36493239	    -14.82813547	      8.77090510	     14.27626549	     -8.06116026	     -2.54352230	    -69.55147785	    -10.16772526	     -1.37191206	     14.38740170	      0.00000000	      0.03450375	      0.00000000	     -0.28509861	    -12.43766513	      1.85206492	      5.84766940
      0.96250000	      4.26391656	     -2.60594601	     -3.15128458	      0.44606766	      1.03837892	      0.31427438	     -1.83046662	      7.56163276	     -0.87059568	    -14.15939502	      5.39403464	    -13.46575367	     10.03159571	     14.46841715	     -7.51851012	     -2.55755895	    -68.38163687	     -9.93241117	     -1.13435383	     14.18456778	      0.00000000	      0.03323142	      0.00000000	     -0.30894242	    -12.35099446	      1.27830693	      6.51735565
      0.96666667	      4.27342553	     -2.60021145	     -3.37996781	      0.45028018	      1.03894194	      0.31462250	     -2.14499887	      7.49644735	     -0.93185296	    -14.10407503	      5.39595897	    -13.43631518	     10.04230688	     15.03867474	     -7.50970593	     -2.54796103	    -68.01425463	    -10.03466698	     -1.16440941	     14.19345989	      0.00000000	      0.03347351	      0.00000000	     -0.28053291	    -12.48631292	      1.27492696	      6.52591712
      0.97083333	      4.15668369	     -2.44988184	     -3.48080644	      0.45516857	      1.03951138	      0.31500057	     -2.64983900	      7.32625887	     -0.78725844	    -13.43646429	      5.28806708	    -13.11470520	     10.11615171	     15.68609786	     -7.35010122	     -2.51720926	    -67.49650575	    -10.06820636	     -1.23726602	     14.27602471	      0.00000000	      0.03382829	      0.00000000	     -0.29690902	    -12.33632383	      1.06336019	      6.62179292
      0.97500000	      4.16564003	     -2.45580775	     -3.70701345	      0.45932519	      1.03995734	      0.31534830	     -2.94431137	      7.27378920	     -0.84786060	    -13.41638895	      5.27825622	    -13.08613847	     10.12421111	     16.23965262	     -7.35024264	     -2.50793190	    -67.09620557	    -10.18489553	     -1.29223655	     14.27011453	      0.00000000	      0.03402388	      0.00000000	     -0.26090284	    -12.47876039	      1.06134967	      6.63636177
      0.97916667	      3.98978862	     -2.31380326	     -3.82785927	      0.46439523	      1.04041144	      0.31572747	     -3.42418495	      7.10917349	     -0.67172733	    -12.67912075	      5.09645950	    -12.67050388	     10.21449654	     16.82386326	     -7.20360685	     -2.50814943	    -66.33105900	    -10.13130379	     -1.34720367	     14.35453719	      0.00000000	      0.03386834	      0.00000000	     -0.27354944	    -12.23925053	      0.86364936	      6.80788142
      0.98333333	      4.00228100	     -2.32767334	     -4.05273212	      0.46850888	      1.04078130	      0.31604489	     -3.70757273	      7.05972562	     -0.73175613	    -12.68270539	      5.08678562	    -12.64659765	     10.22359361	     17.36627730	     -7.21357455	     -2.49809611	    -65.90521790	    -10.26508555	     -1.41119584	     14.34080000	      0.00000000	      0.03418229	      0.00000000	     -0.23560940	    -12.38651022	      0.86526455	      6.82507378
      0.98750000	      3.80101286	     -2.21904635	     -4.22417379	      0.47365568	      1.04111131	      0.31645747	     -4.14146664	      6.92007879	     -0.54842611	    -11.99125660	      4.89985170	    -12.20641629	     10.34283062	     17.83641000	     -7.10031924	     -2.51175612	    -64.88378338	    -10.13878862	     -1.41920217	     14.40595261	      0.00000000	      0.03340906	      0.00000000	     -0.25279084	    -12.10612868	      0.71327440	      7.04869442
      0.99166667	      3.81579765	     -2.23705954	     -4.43659052	      0.47771975	      1.04138710	      0.31675726	     -4.41646584	      6.87533568	     -0.60340593	    -12.01178972	      4.89407167	    -12.18690011	     10.35333588	     18.37219499	     -7.11701794	     -2.49976749	    -64.44049611	    -10.28723940	     -1.49844756	     14.38169252	      0.00000000	      0.03377609	      0.00000000	     -0.21276445	    -12.26225245	      0.71135836	      7.06644255
      0.99583333	      3.60538899	     -2.14734479	     -4.70349924	      0.48297349	      1.04163857	      0.31727917	     -4.82322442	      6.73793137	     -0.37569220	    -11.36704549	      4.67193816	    -11.68661612	     10.55457226	     18.64958005	     -7.01927381	     -2.52938139	    -63.05398653	    -10.04429871	     -1.40365590	     14.37023096	      0.00000000	      0.03211009	      0.00000000	     -0.23744323	    -11.95725510	      0.57134843	      7.39215539
      1.00000000	      3.62342395	     -2.16601185	     -4.89352490	      0.48697130	      1.04182665	      0.31754071	     -5.09654142	      6.69592977	     -0.42392919	    -11.38899456	      4.67689376	    -11.67310876	     10.56867329	     19.19177006	     -7.03862147	     -2.51604951	    -62.62067157	    -10.22715422	     -1.50817044	     14.35302172	      0.00000000	      0.03265199	      0.00000000	     -0.20163322	    -12.13199820	      0.56946472	      7.41164354
      1.00416667	      3.61209549	     -1.97895068	     -5.38969682	      0.49203330	      1.04233189	      0.31827052	     -5.58494491	      6.38712837	     -0.10829151	    -10.97421912	      4.46691027	    -11.12142285	     11.25146643	     18.87443632	     -6.75942791	     -2.49755771	    -60.41129847	     -9.64580820	     -1.08363053	     14.03445888	      0.00000000	      0.02929183	      0.00000000	     -0.23704196	    -12.07775505	      0.25768479	      8.09242642
      1.00833333	      3.55996009	     -2.00383383	     -5.42653040	      0.49658006	      1.04241679	      0.31836700	     -5.98491027	      6.37685089	     -0.15658438	    -10.64289709	      4.52033662	    -11.00474497	     11.37361220	     19.37818589	     -6.78075700	     -2.45627200	    -59.72277834	     -9.69655559	     -1.24949965	     14.14065452	      0.00000000	      0.02934246	      0.00000000	     -0.22262937	    -12.08139794	      0.27002989	      8.12959117
      1.01250000	      3.56612286	     -2.03409085	     -5.60088796	      0.50059232	      1.04244931	      0.31860542	     -6.25488399	      6.34560525	     -0.20754608	    -10.64558447	      4.51853649	    -10.98735561	     11.38532730	     19.91911249	     -6.81900819	     -2.44123463	    -59.27754176	     -9.90310961	     -1.38097321	     14.12377691	      0.00000000	      0.02998407	      0.00000000	     -0.18587711	    -12.24839282	      0.27154969	      8.13497298
      1.01666667	      3.61740949	     -1.93151804	     -5.89049087	      0.50577270	      1.04287327	      0.31904883	     -6.90410559	      6.13759831	     -0.02860261	    -10.04843999	      4.14851709	    -10.64089771	     12.37197504	     19.51725953	     -6.58628790	     -2.26367125	    -56.92006937	     -9.21279297	     -1.01025935	     13.84304507	      0.00000000	      0.02652612	      0.00000000	     -0.20453368	    -12.25738514	      0.10316341	      8.46580611
      1.02083333	      3.62182686	     -1.96758804	     -6.03459968	      0.50978077	      1.04281403	      0.31925092	     -7.17086625	      6.11406413	     -0.07677826	    -10.05396518	      4.15991323	    -10.62896494	     12.38199277	     20.06012735	     -6.63597218	     -2.25182052	    -56.48279778	     -9.43981754	     -1.16210549	     13.82748375	      0.00000000	      0.02723131	      0.00000000	     -0.17161755	    -12.41302785	      0.10497188	      8.46904177
